<?xml version="1.0" encoding="UTF-8" standalone="no"?>
<svg
   width="512"
   height="512"
   viewBox="0 0 512 512"
   fill="none"
   xmlns="http://www.w3.org/2000/svg">
  <rect width="512" height="512" rx="50" fill="#4b6cb7"/>
  <path
     d="M 107.39471,389.77226 V 120.99723 h 28.28347 V 364.56455 h 230.80469 v 25.20771 z"
     fill="#ffffff"
     stroke-width="1.1995" />
  <path
     d="m 196.03044,337.64777 c -9.31562,0 -17.87255,-1.7511 -25.67076,-5.25332 -7.79823,-3.50221 -14.0168,-8.34894 -18.65568,-14.5402 -4.63888,-6.31869 -6.95832,-13.33354 -6.95832,-21.04456 0,-10.0617 2.7185,-18.53116 8.15551,-25.40837 5.437,-6.7547 12.6329,-11.88883 21.58769,-15.40239 8.95478,-3.63884 18.77233,-5.45825 29.45264,-5.45825 6.84168,0 13.56613,0.6635 20.17335,1.9905 6.6072,1.327 12.51625,3.08824 17.72713,5.28374 v -6.05439 c 0,-11.5084 -3.42629,-20.37175 -10.27886,-26.59006 -6.85258,-6.21831 -16.66104,-9.32746 -29.42538,-9.32746 -8.51429,0 -16.89362,1.32701 -25.13798,3.98103 -8.24437,2.53659 -16.38582,6.2183 -24.42436,11.04513 l -11.67663,-22.61765 c 9.98209,-5.94318 20.42505,-10.48939 31.3289,-13.63861 10.90383,-3.14922 22.01422,-4.72383 33.33115,-4.72383 22.14177,0 39.36529,5.53941 51.67057,16.61823 12.30528,10.97357 18.45792,26.42576 18.45792,46.35657 v 37.73522 c 0,5.94318 2.72942,8.91477 8.18826,8.91477 h 0.17046 v 25.43877 c -3.4263,1.56536 -6.95833,2.75938 -10.60416,3.58205 -3.64583,0.82268 -7.08588,1.23402 -10.32016,1.23402 -8.13863,0 -14.41654,-1.61184 -18.83373,-4.83553 -4.41719,-3.34866 -7.08588,-7.74536 -8.00931,-13.19008 l -0.6635,-9.09824 c -5.43699,8.87349 -12.60994,15.66669 -21.51883,20.3796 -8.90889,4.71299 -18.65568,7.06948 -29.24036,7.06948 z m 9.95574,-26.55965 c 7.57653,0 14.48539,-1.75112 20.72658,-5.25333 6.24119,-3.50221 10.90383,-8.17471 13.98795,-14.01748 3.0841,-5.84278 4.62616,-12.16326 4.62616,-18.96144 v -7.47974 c -4.96235,-1.88981 -10.39318,-3.45009 -16.29252,-4.68083 -5.89933,-1.23074 -11.51706,-1.84611 -16.85318,-1.84611 -10.52962,0 -19.03806,2.41725 -25.52531,7.25174 -6.48724,4.83449 -9.73086,11.17093 -9.73086,19.00931 0,7.59181 2.87392,13.71969 8.62176,18.38366 5.74784,4.66398 12.51626,6.99422 20.44942,6.99422 z"
     fill="#ffffff"
     stroke-width="1.09633" />
  <path
     d="m 322.30859,337.21997 c -12.523,0 -23.70824,-3.04723 -33.55574,-9.14168 -9.68304,-6.09446 -17.26848,-14.55107 -22.75633,-25.36983 -5.32785,-10.9781 -7.99177,-23.87173 -7.99177,-38.68091 0,-14.53192 2.66392,-27.33425 7.99177,-38.40806 5.48785,-11.07381 13.1593,-19.70758 23.01434,-25.90129 9.85504,-6.19373 21.04058,-9.29058 33.55574,-9.29058 9.51104,0 18.33549,1.73659 26.47334,5.20977 8.30584,3.47319 14.96965,8.18956 19.99141,14.14911 l -0.5171,-16.4301 V 122.0031 h 32.52164 v 211.55356 h -30.8059 l -1.29276,-19.32476 c -5.02184,6.97127 -11.8523,12.29553 -20.49214,15.97278 -8.47784,3.57246 -17.18047,5.35868 -26.1065,5.35868 z m 8.99468,-28.05717 c 11.34294,0 20.59822,-4.24926 27.76585,-12.74778 7.16763,-8.49853 10.75144,-19.87565 10.75144,-34.13135 0,-14.2557 -3.58381,-25.63354 -10.75144,-34.13136 -7.16763,-8.49851 -16.42291,-12.74778 -27.76585,-12.74778 -11.34294,0 -20.68623,4.29889 -28.02386,12.89668 -7.16764,8.59779 -10.75145,19.93525 -10.75145,34.01246 0,14.07722 3.58381,25.45505 10.75145,34.15212 7.33963,8.59778 16.68092,12.89701 28.02386,12.89701 z"
     fill="#ffffff"
     stroke-width="1.13788" />
</svg>